<?xml version="1.0" standalone="no"?>
<!DOCTYPE svg PUBLIC "-//W3C//DTD SVG 20010904//EN"
 "http://www.w3.org/TR/2001/REC-SVG-20010904/DTD/svg10.dtd">
<svg version="1.0" xmlns="http://www.w3.org/2000/svg"
 width="243.000000pt" height="241.000000pt" viewBox="0 0 243.000000 241.000000"
 preserveAspectRatio="xMidYMid meet">

<g transform="translate(0.000000,241.000000) scale(0.100000,-0.100000)"
fill="#000000" stroke="none">
<path d="M1025 2330 c-181 -19 -343 -67 -499 -148 -94 -48 -221 -138 -270
-190 l-29 -31 7 -183 c4 -101 11 -208 15 -238 l8 -55 -45 -50 c-61 -68 -109
-172 -123 -267 -9 -64 -8 -90 6 -159 48 -241 223 -387 485 -406 l91 -6 152
-152 c84 -83 205 -202 271 -263 l119 -111 195 182 c107 100 229 219 271 264
76 82 76 83 126 83 159 0 291 53 394 157 102 105 140 198 141 349 0 129 -41
236 -130 336 l-40 46 9 69 c6 37 13 145 17 238 l7 170 -39 34 c-152 134 -432
264 -673 312 -111 22 -346 32 -466 19z m200 -481 c67 -21 170 -82 201 -120 18
-23 26 -24 109 -24 74 0 97 -4 131 -22 95 -51 152 -126 163 -215 l6 -51 63
-13 c159 -32 256 -151 255 -309 -1 -83 -32 -152 -97 -213 -96 -91 -54 -87
-846 -87 -634 0 -699 2 -738 17 -66 27 -126 82 -163 151 -29 54 -33 71 -34
137 0 62 5 85 28 132 49 100 162 178 258 178 26 0 28 4 34 48 28 208 173 371
367 412 59 12 189 2 263 -21z"/>
<path d="M1149 1600 c-65 -19 -119 -89 -119 -153 0 -38 26 -97 57 -129 l26
-27 -42 -174 c-22 -96 -41 -180 -41 -186 0 -8 51 -11 170 -11 94 0 170 3 170
8 0 4 -19 86 -42 184 l-42 176 32 36 c17 20 34 49 38 64 3 15 8 33 10 41 8 26
-18 97 -49 129 -44 45 -106 61 -168 42z"/>
</g>
</svg>
