<?xml version="1.0" standalone="no"?>
<!DOCTYPE svg PUBLIC "-//W3C//DTD SVG 20010904//EN"
 "http://www.w3.org/TR/2001/REC-SVG-20010904/DTD/svg10.dtd">
<svg version="1.0" xmlns="http://www.w3.org/2000/svg"
 width="256.000000pt" height="200.000000pt" viewBox="0 0 256.000000 200.000000"
 preserveAspectRatio="xMidYMid meet">
<metadata>
Created by potrace 1.16, written by Peter Selinger 2001-2019
</metadata>
<g transform="translate(0.000000,200.000000) scale(0.100000,-0.100000)"
fill="#53B883" stroke="none">
<path d="M1190 1982 c-178 -60 -312 -181 -398 -359 -19 -40 -37 -73 -41 -73
-3 0 -35 9 -69 20 -76 24 -123 25 -217 5 -114 -24 -209 -77 -295 -164 -120
-121 -170 -245 -170 -416 0 -170 52 -297 170 -415 120 -121 229 -165 426 -177
l111 -6 6 -75 c10 -137 79 -237 203 -294 48 -22 57 -23 369 -23 l320 0 50 27
c61 32 129 103 154 161 21 49 41 135 41 177 l0 30 118 0 c148 0 231 13 307 49
182 85 285 248 285 452 0 150 -48 259 -159 362 -94 86 -196 126 -322 127 l-67
0 -11 66 c-43 242 -213 441 -441 516 -93 30 -292 36 -370 10z m205 -657 c117
-30 216 -125 250 -238 9 -31 15 -91 15 -153 0 -80 3 -104 16 -115 8 -7 25 -31
37 -53 21 -39 22 -54 22 -256 0 -240 -4 -255 -71 -330 -63 -69 -92 -75 -389
-75 -250 0 -262 1 -310 23 -61 28 -90 55 -118 107 -21 38 -22 54 -22 265 0
244 3 259 59 312 23 22 25 31 28 148 3 105 7 132 26 171 82 168 262 244 457
194z"/>
<path d="M1176 1204 c-56 -20 -103 -59 -126 -104 -17 -32 -20 -59 -20 -155 l0
-115 255 0 255 0 0 110 c0 122 -12 160 -67 212 -67 64 -201 87 -297 52z"/>
<path d="M1203 650 c-40 -24 -63 -67 -63 -117 0 -43 28 -96 59 -113 18 -9 21
-20 21 -85 0 -83 13 -105 60 -105 39 0 50 23 50 103 0 62 2 66 40 105 37 37
40 43 40 97 0 53 -3 60 -39 96 -34 35 -44 39 -87 39 -31 0 -61 -7 -81 -20z"/>
</g>
</svg>
